# xmcd
#
# Track frame offsets:
#	150
#	14758
#	29597
#	48626
#	62749
#
# Disc length: 1116 seconds
#
# Revision: 1
# Processed by: cddbd v1.5.2PL0 Copyright (c) Steve Scherf et al.
# Submitted via: audiograbber 1.83.01
#
DISCID=45045a05
DTITLE=Bloodwork - Demo 2007
DYEAR=2007
DGENRE=Death Metal
TTITLE0=Demonic
TTITLE1=Behind The Lie
TTITLE2=Deadline
TTITLE3=Silent Revolution
TTITLE4=Graveheart
EXTD=
EXTT0=
EXTT1=
EXTT2=
EXTT3=
EXTT4=
PLAYORDER=
